# xmcd CD database file
#
# Track frame offsets:
#	150
#	14800
#	29140
#	48855
#	66680
#	84310
#	103567
#	115505
#	136540
#	152592
#	164422
#	182222
#	194870
#	210965
#	225757
#	240962
#
# Disc length: 3503 seconds
#
# Revision: 3
# Processed by: cddbd v1.5.2PL0 Copyright (c) Steve Scherf et al.
# Submitted via: CDex 1.91
#
DISCID=cd0dad10
DTITLE=Various Artist - Cowboys, Lost Loves, New Moons - All Ears Review Volume 5
DYEAR=1989
DGENRE=Country
TTITLE0=Randy Erwin - Cowboy Night Herd Song
TTITLE1=Blue Rose - Blue Love
TTITLE2=Tom Russell Band - U.S. Steel
TTITLE3=Deighton Family - Two Little Boys
TTITLE4=Peter Rowan and Nashville Bluegrass Band - New Moon Rising
TTITLE5=Sidesaddle - Pineywood Hills
TTITLE6=Johnson Mountain Boys - Black Mountain Boys
TTITLE7=Robin and Linda Williams - Across the Blue Mountains
TTITLE8=Patsy Montana - I Want To Be A Cowboy's Sweetheart
TTITLE9=D.L. Menard - Let's Gallop In Mamou
TTITLE10=Glen Duncan - Angel's Lullaby
TTITLE11=Chris Gaffney and the Cold Hard Facts - Daddy's Little Girl
TTITLE12=Bell and Shore - Every Time I'm Crying
TTITLE13=Red Knuckles and the Trailblazers - The Girl of My Dreams
TTITLE14=Glenda Faye - Orange Blossom Special
TTITLE15=Laurie Lewis - I'd Be Lost Without You
EXTD=YEAR: 1989
EXTT0=
EXTT1=
EXTT2=
EXTT3=
EXTT4=
EXTT5=
EXTT6=
EXTT7=
EXTT8=
EXTT9=
EXTT10=
EXTT11=
EXTT12=
EXTT13=
EXTT14=
EXTT15=
PLAYORDER=
